HIERARCHY
ROOT Hips
{
	OFFSET -3.958830 18.904000 13.208200
	CHANNELS 6 Xposition Yposition Zposition Zrotation Yrotation Xrotation 
	JOINT LHipJoint
	{
		OFFSET 0.000000 0.000000 0.000000
		CHANNELS 3 Zrotation Yrotation Xrotation
		JOINT LeftUpLeg
		{
			OFFSET 1.800000 -1.400000 0.085000
			CHANNELS 3 Zrotation Yrotation Xrotation
			JOINT LeftLeg
			{
				OFFSET 2.215000 -6.000000 0.000000
				CHANNELS 3 Zrotation Yrotation Xrotation
				JOINT LeftFoot
				{
					OFFSET 2.500000 -6.900000 0.000000
					CHANNELS 3 Zrotation Yrotation Xrotation
					JOINT LeftToeBase
					{
						OFFSET 0.200000 -0.500000 1.950000
						CHANNELS 3 Zrotation Yrotation Xrotation
						End Site
						{
							OFFSET 0.000000 0.000000 0.000000
						}
					}
				}
			}
		}
	}
	JOINT RHipJoint
	{
		OFFSET 0.000000 0.000000 0.000000
		CHANNELS 3 Zrotation Yrotation Xrotation
		JOINT RightUpLeg
		{
			OFFSET -1.800000 -1.400000 0.085000
			CHANNELS 3 Zrotation Yrotation Xrotation
			JOINT RightLeg
			{
				OFFSET -2.215000 -6.000000 0.000000
				CHANNELS 3 Zrotation Yrotation Xrotation
				JOINT RightFoot
				{
					OFFSET -2.500000 -6.900000 0.000000
					CHANNELS 3 Zrotation Yrotation Xrotation
					JOINT RightToeBase
					{
						OFFSET -0.200000 -0.500000 1.950000
						CHANNELS 3 Zrotation Yrotation Xrotation
						End Site
						{
							OFFSET 0.000000 0.000000 0.000000
						}
					}
				}
			}
		}
	}
	JOINT LowerBack
	{
		OFFSET 0.000000 0.000000 0.000000
		CHANNELS 3 Zrotation Yrotation Xrotation
		JOINT Spine
		{
			OFFSET -0.087000 1.940000 -0.288900
			CHANNELS 3 Zrotation Yrotation Xrotation
			JOINT Spine1
			{
				OFFSET 0.000000 1.950000 0.060000
				CHANNELS 3 Zrotation Yrotation Xrotation
				JOINT Neck
				{
					OFFSET 0.000000 0.000000 0.000000
					CHANNELS 3 Zrotation Yrotation Xrotation
					JOINT Neck1
					{
						OFFSET 0.000000 1.600000 0.340000
						CHANNELS 3 Zrotation Yrotation Xrotation
						JOINT Head
						{
							OFFSET 0.000000 1.667000 -0.240000
							CHANNELS 3 Zrotation Yrotation Xrotation
							End Site
							{
								OFFSET 0.000000 0.000000 0.000000
							}
						}
					}
				}
				JOINT LeftShoulder
				{
					OFFSET 0.000000 0.000000 0.000000
					CHANNELS 3 Zrotation Yrotation Xrotation
					JOINT LeftArm
					{
						OFFSET 2.700000 1.550000 -0.730000
						CHANNELS 3 Zrotation Yrotation Xrotation
						JOINT LeftForeArm
						{
							OFFSET 5.450000 0.000000 0.000000
							CHANNELS 3 Zrotation Yrotation Xrotation
							JOINT LeftHand
							{
								OFFSET 3.450000 0.000000 0.000000
								CHANNELS 3 Zrotation Yrotation Xrotation
								JOINT LeftHandIndex1
								{
									OFFSET 0.750000 0.000000 0.000000
									CHANNELS 3 Zrotation Yrotation Xrotation
									End Site
									{
										OFFSET 0.000000 0.000000 0.000000
									}
								}
							}
						}
					}
				}
				JOINT RightShoulder
				{
					OFFSET 0.000000 0.000000 0.000000
					CHANNELS 3 Zrotation Yrotation Xrotation
					JOINT RightArm
					{
						OFFSET -2.700000 1.550000 -0.730000
						CHANNELS 3 Zrotation Yrotation Xrotation
						JOINT RightForeArm
						{
							OFFSET -5.450000 0.000000 0.000000
							CHANNELS 3 Zrotation Yrotation Xrotation
							JOINT RightHand
							{
								OFFSET -3.450000 0.000000 0.000000
								CHANNELS 3 Zrotation Yrotation Xrotation
								JOINT RightHandIndex1
								{
									OFFSET -0.750000 0.000000 0.000000
									CHANNELS 3 Zrotation Yrotation Xrotation
									End Site
									{
										OFFSET 0.000000 0.000000 0.000000
									}
								}
							}
						}
					}
				}
			}
		}
	}
}
MOTION
Frames: 14
Frame Time: 0.016667
-3.696320 16.001270 -3.603860 -18.354428 -27.751430 3.820870 -15.775849 10.786055 4.846663 4.504751 -8.202922 -48.358132 -2.541840 13.079150 50.958063 0.453081 9.302006 1.236771 0.166940 -0.034420 0.072270 18.162129 -8.158883 4.215031 -1.689591 13.829770 -25.550565 18.839491 -33.245893 81.324090 -3.311678 -15.728470 -0.236409 -0.074800 0.305110 0.107410 -2.784997 -2.200948 -9.310908 -13.678365 10.846217 35.076361 1.539029 8.442712 -7.127698 -0.936259 -2.103913 -6.037636 -5.752725 5.577501 38.459838 7.035490 5.555250 -12.928170 -15.696110 7.746106 -0.004616 -39.414439 -0.235243 -2.765360 -131.658866 -61.703124 96.359587 -3.579676 3.470624 0.603850 0.024870 0.026280 0.169700 17.891924 -1.163580 1.467400 47.442143 -1.160069 -11.055031 -4.238423 33.686028 -0.863154 2.132412 -1.082722 -0.256700 0.271500 0.066220 -0.112930 
-3.787080 15.904650 -3.580580 -18.986999 -30.133747 1.792247 -15.801787 10.571438 4.884486 9.367820 -7.044890 -47.391697 -6.856568 17.096100 53.750646 0.778930 10.663707 0.808385 0.203720 0.040400 0.104160 18.170347 -7.851731 4.428341 -4.524960 15.127113 -30.061036 16.614677 -35.436101 87.907602 -3.600713 -16.741518 -0.431251 -0.055690 0.266640 0.065990 -2.887812 -2.170102 -9.552331 -13.868374 11.065105 37.672195 0.469456 7.954071 -7.800365 -0.935853 -2.550186 -6.436823 -6.956547 6.831270 40.895632 7.875190 6.758900 -14.020990 -17.808578 5.557650 -0.206525 -35.462254 -0.020050 -4.588665 -135.010312 -64.678758 103.868523 -3.534533 3.299665 0.624070 -0.021070 0.075010 0.185340 20.022486 1.067962 2.347009 45.588362 -2.317042 -10.142092 -6.769802 27.149545 -1.132365 2.213201 -1.020107 -0.244450 0.304740 0.019080 -0.105830 
-3.850710 15.786830 -3.533640 -20.142403 -30.186678 1.339746 -15.834513 10.162947 5.274423 14.206606 -7.142806 -48.231942 -11.077769 20.750600 56.182757 1.095669 11.906478 0.436873 0.267170 0.125860 0.131850 18.207931 -7.561739 4.478091 -7.162196 14.893662 -35.488444 13.507847 -35.323375 91.533771 -3.691720 -17.126222 -0.526016 -0.018260 0.219990 0.047910 -3.033309 -2.108860 -9.846448 -12.331535 9.334442 40.060557 -1.173244 6.257373 -9.062788 -0.852299 -3.522848 -6.103885 -9.241446 7.977727 41.368561 8.955410 6.600930 -15.180400 -18.830309 5.855951 -1.371086 -33.356241 -1.153737 -5.627942 -126.479816 -70.279113 100.410141 -3.491032 3.034771 0.632490 -0.072690 0.111090 0.210960 20.813723 0.444529 2.405653 44.086061 -3.670125 -9.067687 -8.165371 21.393712 -0.943086 2.309294 -1.016246 -0.217390 0.302200 -0.031560 -0.091530 
-3.901920 15.721860 -3.512630 -21.364332 -28.552662 0.086793 -15.840722 9.987926 5.625322 18.238905 -7.918796 -47.964712 -14.495470 23.067525 57.485320 1.311519 12.655004 0.215604 0.350720 0.229760 0.198230 18.240757 -7.487813 4.339216 -8.534264 13.274594 -38.741637 10.819062 -32.691899 90.481948 -3.553315 -16.558184 -0.437590 0.016590 0.145890 0.058820 -3.102299 -2.198007 -9.997394 -11.126393 7.117261 43.518780 -2.264993 4.479992 -8.899453 -0.520465 -4.043550 -6.359959 -10.804929 8.696423 42.376145 8.714390 6.939880 -17.669720 -20.347756 3.721779 -2.038312 -31.734327 -3.292045 -6.382988 -106.253682 -76.857021 84.333700 -3.716883 2.104963 0.662940 -0.130350 0.185190 0.227050 21.683879 1.843758 3.196925 42.314207 -4.606065 -8.204141 -9.041580 15.871676 -0.688929 2.394933 -1.012893 -0.170660 0.292130 -0.087480 -0.088640 
-3.941490 15.678960 -3.495850 -21.740857 -27.367376 -1.253354 -15.862257 9.920683 5.931649 21.429188 -8.782734 -47.287288 -18.668706 25.150786 56.968839 1.472437 13.135176 0.087844 0.398260 0.297890 0.243510 18.246711 -7.488184 4.128806 -9.885061 11.434461 -41.059334 8.498428 -28.480891 86.553324 -3.211261 -15.343768 -0.211690 0.044300 0.108690 0.051760 -3.070981 -2.363151 -10.070135 -11.356951 5.684336 45.436465 -2.689062 3.153489 -6.912020 -0.272021 -3.894876 -7.374733 -11.449837 9.051178 43.839102 9.207970 6.664450 -18.648360 -21.466951 0.045058 -1.195054 -30.705795 -4.523779 -6.944446 -51.327125 -79.806882 37.001707 -3.438604 3.278289 0.679640 -0.165990 0.236150 0.234600 22.448032 4.662911 4.598740 41.247545 -6.556863 -8.090365 -11.262021 12.043856 -0.498695 2.440531 -1.013253 -0.148190 0.317480 -0.118180 -0.082820 
-3.973220 15.632070 -3.458730 -21.288002 -25.705258 -1.965605 -15.870185 9.916529 6.160924 22.928386 -10.319331 -46.993414 -21.615139 26.300021 56.540364 1.553319 13.433209 0.032309 0.387540 0.289470 0.243030 18.249264 -7.570692 3.898424 -12.334957 8.736627 -43.084348 7.077332 -24.561026 80.204253 -2.723042 -13.841194 0.096943 0.059160 0.126710 0.014640 -3.018135 -2.521584 -10.058704 -12.303872 4.327679 46.010808 -2.924794 1.389167 -6.647327 -0.204587 -3.590741 -7.131512 -11.580564 9.297910 44.467175 9.696410 6.104410 -18.122890 -22.430820 -1.224214 -1.877073 -29.776495 -5.761167 -8.449303 -20.267769 -71.266765 11.059508 -3.319248 3.154421 0.684430 -0.163350 0.219500 0.232140 23.425147 4.424671 4.915528 39.197829 -8.147770 -7.613008 -11.943292 9.222246 -0.206292 2.475226 -0.988858 -0.183860 0.365700 -0.111760 -0.088640 
-3.990080 15.602640 -3.430310 -21.380900 -24.327596 -2.629244 -15.891993 10.069745 6.345660 24.007885 -11.698961 -46.673900 -23.178948 26.595571 56.409632 1.574596 13.578583 -0.010194 0.387050 0.273960 0.274270 18.216848 -7.729296 3.574877 -13.305350 6.299213 -43.555620 5.731357 -20.098140 71.545189 -2.127063 -11.929747 0.521038 0.071170 0.115150 0.016890 -2.867179 -2.789995 -9.982866 -13.015355 3.421367 46.170140 -3.028429 0.518926 -5.063371 0.365883 -2.263607 -7.248527 -9.421786 8.541066 45.402045 8.091760 6.257390 -16.114810 -24.606074 -4.376764 -2.156261 -26.432761 -7.407127 -8.815606 -5.896004 -59.446595 1.827405 -3.323217 3.010633 0.663750 -0.135950 0.200250 0.212620 24.538032 5.660887 6.033632 36.839667 -10.383005 -7.239511 -12.731662 7.811864 -0.083460 2.481211 -1.038209 -0.194910 0.344740 -0.110870 -0.114900 
-3.988140 15.597770 -3.402370 -20.914084 -23.088254 -3.205386 -15.863922 10.290305 6.584367 24.300925 -13.282376 -46.500369 -25.460344 26.542277 55.117341 1.585642 13.526714 0.007178 0.394580 0.269120 0.297050 18.191384 -8.104645 3.089651 -13.611467 3.735867 -42.287820 4.759865 -14.901460 58.110542 -1.345440 -9.139546 1.244254 0.083680 0.097920 0.015800 -2.779506 -2.862394 -9.811912 -13.614256 2.540813 46.143411 -3.553670 -0.361315 -3.661173 0.710743 -1.292312 -7.651316 -7.922840 7.688377 45.586987 7.554430 5.615240 -14.083400 -26.585735 -7.570004 -1.945904 -23.136122 -8.940969 -8.256917 1.934311 -45.288680 -1.229339 -3.349933 2.934384 0.633020 -0.123740 0.177830 0.198960 25.849818 7.264658 7.240147 35.393172 -13.019769 -7.043809 -14.500042 6.207055 0.064901 2.511863 -1.125023 -0.192830 0.306350 -0.122040 -0.126390 
-3.988300 15.626870 -3.370480 -19.791617 -23.574168 -3.986637 -15.833454 10.682077 6.624865 23.596723 -13.631857 -44.786060 -26.885951 25.930146 52.664737 1.507746 13.218817 0.069998 0.359650 0.221040 0.291000 18.127657 -8.504354 2.680972 -13.462046 2.321840 -40.292423 3.681992 -10.104976 43.972671 -0.670840 -6.269291 2.111038 0.063580 0.107780 0.056410 -2.624753 -2.922237 -9.563104 -15.545946 3.208998 44.976882 -3.617370 -0.587979 -2.501616 1.120855 0.309344 -8.154367 -4.832831 7.183574 47.015150 6.287830 6.430920 -11.673000 -28.189094 -10.137739 -1.118222 -20.169815 -9.458668 -6.943899 4.904406 -31.576674 -1.626819 -3.480493 2.900863 0.601730 -0.075990 0.157120 0.166220 26.674097 8.555937 7.722583 34.273981 -13.070542 -6.446727 -15.966953 2.180442 0.544995 2.570840 -1.178193 -0.184710 0.256650 -0.086860 -0.140210 
-4.007650 15.642490 -3.324610 -19.512887 -25.042619 -3.152726 -15.812960 10.833295 6.729677 24.543552 -12.569950 -43.861642 -29.550645 26.092853 49.126042 1.481981 12.968514 0.139375 0.321020 0.149990 0.270710 18.094637 -8.695802 2.475994 -12.202984 1.940807 -39.189522 2.356565 -6.341738 30.516464 -0.211133 -3.779695 2.970726 0.027280 0.126720 0.081450 -2.566350 -2.793107 -9.446497 -15.889701 2.963882 42.506133 -5.022648 -1.125191 -3.371005 2.021710 0.964834 -7.981160 -3.372438 7.376958 47.680436 5.316940 7.029870 -7.359600 -28.707954 -9.211753 -1.050025 -18.869172 -9.681064 -4.940509 5.570515 -20.109819 -1.307539 -3.620205 2.889413 0.545340 -0.026190 0.101790 0.153440 25.512440 6.967647 7.017893 34.433506 -12.956710 -6.749771 -17.687649 2.596016 0.402134 2.592475 -1.266670 -0.176990 0.177310 -0.075310 -0.144290 
-4.022120 15.664800 -3.291940 -19.170901 -27.758022 -1.966019 -15.799460 10.800524 6.724283 25.377523 -10.817722 -42.826695 -32.327515 26.559323 45.451273 1.525061 12.724221 0.249258 0.284110 0.128980 0.209130 18.085011 -8.664215 2.539179 -11.496547 2.041428 -38.316886 2.452721 -3.897607 17.170891 0.029482 -2.048634 3.647887 0.007170 0.182150 0.059590 -2.605163 -2.555473 -9.450206 -15.765942 2.955155 39.846940 -6.579220 -1.422060 -5.129586 2.510465 0.228526 -7.608367 -4.739176 8.410027 47.328556 6.185260 6.639820 -4.323340 -27.206789 -6.302378 -1.579691 -20.069190 -10.128758 -2.954221 4.992346 -10.915764 -0.985346 -3.734683 2.795381 0.479890 0.003150 0.060540 0.186260 23.206200 4.419602 6.019777 35.307956 -13.382995 -7.890581 -20.327417 7.229070 -0.439375 2.560760 -1.312557 -0.172750 0.180860 -0.086350 -0.098380 
-4.063050 15.695440 -3.251290 -18.045964 -27.984942 0.080487 -15.879922 10.600416 6.672001 24.938189 -10.667742 -44.044074 -33.065767 26.607468 44.229629 1.552575 12.663068 0.325459 0.179350 0.011750 0.084910 18.031614 -8.290551 2.805832 -12.813340 1.711381 -36.717348 4.430211 -2.439403 3.556216 0.125092 -1.603884 3.873648 -0.043980 0.310170 0.034410 -2.513593 -2.665768 -9.595751 -16.770293 2.409358 35.986219 -6.725692 -2.536921 -7.403855 2.657872 -0.685977 -6.768338 -6.388389 9.261067 46.235042 8.112050 5.106230 -0.599330 -24.032387 -1.568149 -2.445735 -24.192615 -10.100681 -1.632161 5.200796 -5.413538 -0.913359 -3.867254 2.725358 0.424570 0.061200 -0.034490 0.203330 20.203922 0.098677 4.558471 35.688450 -14.287043 -9.253454 -22.025192 14.763724 -1.651338 2.475117 -1.307948 -0.217110 0.220130 -0.027070 -0.055000 
-4.070400 15.742920 -3.233100 -17.556718 -28.900916 1.561374 -15.897856 10.497737 6.531646 23.866321 -10.195605 -44.525643 -32.154443 25.970969 43.440322 1.537661 12.391940 0.416305 0.142440 -0.016600 0.020840 18.019984 -8.098976 3.078139 -13.400432 2.030246 -36.385051 6.155092 -1.925095 -1.139099 0.128867 -1.742055 3.846788 -0.066880 0.347220 0.018980 -2.535435 -2.625312 -9.663613 -16.335688 1.585604 33.136866 -7.902140 -3.429358 -9.179182 3.062563 -2.050197 -6.220385 -9.000605 10.442059 45.722075 8.720290 4.339490 1.997110 -20.476551 2.940681 -3.272704 -28.304227 -10.008854 -0.831043 5.551115 -0.642195 -0.738335 -3.929669 2.728889 0.368830 0.075410 -0.076150 0.215440 16.060416 -3.472111 3.543596 37.196217 -14.204801 -10.717967 -20.133486 23.861863 -2.598704 2.386526 -1.321636 -0.205610 0.206580 -0.018240 -0.016630 
-4.054330 15.815780 -3.233750 -16.636410 -28.710854 2.568232 -15.921832 10.700597 6.428648 21.665859 -10.435899 -44.837305 -30.489054 24.403403 42.333433 1.485918 11.841812 0.611211 0.143650 0.022820 -0.034100 17.977162 -8.205634 3.025072 -13.760142 2.023008 -37.463109 6.274752 -2.393842 2.711218 0.171786 -1.747272 3.880997 -0.057330 0.394500 0.004620 -2.365465 -2.815861 -9.497423 -17.622747 0.844179 30.606445 -6.835674 -4.470695 -11.219231 3.126114 -3.223082 -4.892636 -10.965337 11.758556 45.318358 8.409350 4.544190 4.422250 -18.041527 8.270175 -4.252528 -32.440466 -8.999773 -0.860962 7.390354 0.460803 -0.583773 -3.933675 2.757939 0.294700 0.106600 -0.098350 0.279910 13.841872 -7.714467 2.068502 34.140780 -11.837892 -10.000139 -19.532097 30.758254 -2.963344 2.355608 -1.440959 -0.184370 0.210930 -0.061000 0.043060 
